<svg width="512" height="510" xmlns="http://www.w3.org/2000/svg">
 <style type="text/css">.st0{display:none;}
	.st1{display:inline;fill:none;stroke:#000000;stroke-width:0.1;stroke-miterlimit:10;}</style>

 <g>
  <title>background</title>
  <rect fill="none" id="canvas_background" height="512" width="514" y="-1" x="-1"/>
 </g>
 <g>
  <title>Layer 1</title>
  <g id="svg_1" class="st0">
   <rect id="svg_2" height="512" width="512" class="st1"/>
   <line id="svg_3" y2="496" x2="512" y1="496" x1="0" class="st1"/>
   <line id="svg_4" y2="480" x2="512" y1="480" x1="0" class="st1"/>
   <line id="svg_5" y2="464" x2="512" y1="464" x1="0" class="st1"/>
   <line id="svg_6" y2="448" x2="512" y1="448" x1="0" class="st1"/>
   <line id="svg_7" y2="432" x2="512" y1="432" x1="0" class="st1"/>
   <line id="svg_8" y2="416" x2="512" y1="416" x1="0" class="st1"/>
   <line id="svg_9" y2="400" x2="512" y1="400" x1="0" class="st1"/>
   <line id="svg_10" y2="384" x2="512" y1="384" x1="0" class="st1"/>
   <line id="svg_11" y2="368" x2="512" y1="368" x1="0" class="st1"/>
   <line id="svg_12" y2="352" x2="512" y1="352" x1="0" class="st1"/>
   <line id="svg_13" y2="336" x2="512" y1="336" x1="0" class="st1"/>
   <line id="svg_14" y2="320" x2="512" y1="320" x1="0" class="st1"/>
   <line id="svg_15" y2="304" x2="512" y1="304" x1="0" class="st1"/>
   <line id="svg_16" y2="288" x2="512" y1="288" x1="0" class="st1"/>
   <line id="svg_17" y2="272" x2="512" y1="272" x1="0" class="st1"/>
   <line id="svg_18" y2="256" x2="512" y1="256" x1="0" class="st1"/>
   <line id="svg_19" y2="240" x2="512" y1="240" x1="0" class="st1"/>
   <line id="svg_20" y2="224" x2="512" y1="224" x1="0" class="st1"/>
   <line id="svg_21" y2="208" x2="512" y1="208" x1="0" class="st1"/>
   <line id="svg_22" y2="192" x2="512" y1="192" x1="0" class="st1"/>
   <line id="svg_23" y2="176" x2="512" y1="176" x1="0" class="st1"/>
   <line id="svg_24" y2="160" x2="512" y1="160" x1="0" class="st1"/>
   <line id="svg_25" y2="144" x2="512" y1="144" x1="0" class="st1"/>
   <line id="svg_26" y2="128" x2="512" y1="128" x1="0" class="st1"/>
   <line id="svg_27" y2="112" x2="512" y1="112" x1="0" class="st1"/>
   <line id="svg_28" y2="96" x2="512" y1="96" x1="0" class="st1"/>
   <line id="svg_29" y2="80" x2="512" y1="80" x1="0" class="st1"/>
   <line id="svg_30" y2="64" x2="512" y1="64" x1="0" class="st1"/>
   <line id="svg_31" y2="48" x2="512" y1="48" x1="0" class="st1"/>
   <line id="svg_32" y2="32" x2="512" y1="32" x1="0" class="st1"/>
   <line id="svg_33" y2="16" x2="512" y1="16" x1="0" class="st1"/>
   <line id="svg_34" y2="512" x2="496" y1="0" x1="496" class="st1"/>
   <line id="svg_35" y2="512" x2="480" y1="0" x1="480" class="st1"/>
   <line id="svg_36" y2="512" x2="464" y1="0" x1="464" class="st1"/>
   <line id="svg_37" y2="512" x2="448" y1="0" x1="448" class="st1"/>
   <line id="svg_38" y2="512" x2="432" y1="0" x1="432" class="st1"/>
   <line id="svg_39" y2="512" x2="416" y1="0" x1="416" class="st1"/>
   <line id="svg_40" y2="512" x2="400" y1="0" x1="400" class="st1"/>
   <line id="svg_41" y2="512" x2="384" y1="0" x1="384" class="st1"/>
   <line id="svg_42" y2="512" x2="368" y1="0" x1="368" class="st1"/>
   <line id="svg_43" y2="512" x2="352" y1="0" x1="352" class="st1"/>
   <line id="svg_44" y2="512" x2="336" y1="0" x1="336" class="st1"/>
   <line id="svg_45" y2="512" x2="320" y1="0" x1="320" class="st1"/>
   <line id="svg_46" y2="512" x2="304" y1="0" x1="304" class="st1"/>
   <line id="svg_47" y2="512" x2="288" y1="0" x1="288" class="st1"/>
   <line id="svg_48" y2="512" x2="272" y1="0" x1="272" class="st1"/>
   <line id="svg_49" y2="512" x2="256" y1="0" x1="256" class="st1"/>
   <line id="svg_50" y2="512" x2="240" y1="0" x1="240" class="st1"/>
   <line id="svg_51" y2="512" x2="224" y1="0" x1="224" class="st1"/>
   <line id="svg_52" y2="512" x2="208" y1="0" x1="208" class="st1"/>
   <line id="svg_53" y2="512" x2="192" y1="0" x1="192" class="st1"/>
   <line id="svg_54" y2="512" x2="176" y1="0" x1="176" class="st1"/>
   <line id="svg_55" y2="512" x2="160" y1="0" x1="160" class="st1"/>
   <line id="svg_56" y2="512" x2="144" y1="0" x1="144" class="st1"/>
   <line id="svg_57" y2="512" x2="128" y1="0" x1="128" class="st1"/>
   <line id="svg_58" y2="512" x2="112" y1="0" x1="112" class="st1"/>
   <line id="svg_59" y2="512" x2="96" y1="0" x1="96" class="st1"/>
   <line id="svg_60" y2="512" x2="80" y1="0" x1="80" class="st1"/>
   <line id="svg_61" y2="512" x2="64" y1="0" x1="64" class="st1"/>
   <line id="svg_62" y2="512" x2="48" y1="0" x1="48" class="st1"/>
   <line id="svg_63" y2="512" x2="32" y1="0" x1="32" class="st1"/>
   <line id="svg_64" y2="512" x2="16" y1="0" x1="16" class="st1"/>
  </g>
  <g id="svg_65">
   <path id="svg_66" d="m246.7,106c-1.2,0.8 8.8,10.7 8.5,27.5c-0.2,15.7 -9.2,27.6 -23.8,46.3c-9.8,12.6 -11.7,12.8 -29.3,33c-16.3,18.7 -24.4,28 -29.3,37.2c-2.7,5.2 -14,26.2 -11.6,51.8c3.8,39.4 36.6,65.6 56.7,81.6c13.6,10.9 26.4,18.1 35.5,22.6c10.4,-4.3 25,-11.4 39.9,-23.5c30.8,-24.9 49.5,-59 55.3,-85c21.5,-94.7 -98.1,-194.2 -101.9,-191.5zm19.7,146.8c-5.6,10 -15.4,22 -23.2,45.9c-4.4,13.5 -6.4,25.6 -7,31.8c-2.7,31.9 20,57.9 18.8,58.7c-1.3,0.7 -25.9,-23.2 -26.6,-55.4c-0.4,-17.1 6.1,-36.3 7.5,-40.6c8.1,-24.3 17,-33.6 24.1,-47c11.9,-22.9 12,-44.8 12.4,-49.4c1.6,-17.9 0,-33.3 -1.6,-42.7c-1.5,-5.9 -1,-5.9 0,0c4.8,19.5 14,65.7 -4.4,98.7z"/>
  </g>
  <path id="svg_67" d="m256,506c-66.8,0 -129.6,-26 -176.8,-73.2s-73.2,-110 -73.2,-176.8s26,-129.6 73.2,-176.8s110,-73.2 176.8,-73.2s129.6,26 176.8,73.2s73.2,110 73.2,176.8s-26,129.6 -73.2,176.8s-110,73.2 -176.8,73.2zm0,-484c-129,0 -234,105 -234,234s105,234 234,234s234,-105 234,-234s-105,-234 -234,-234z"/>
 </g>
</svg>